PathFileType	4	(X/Y/Z)	C:\Users\Basilio\Documents\Thesis Gigler\squatting_fais\c3dfiles\077\SLS_back_pre5\markers_experimental.trc
DataRate	CameraRate	NumFrames	NumMarkers	Units	OrigDataRate	OrigDataStartFrame	OrigNumFrames
200.000000	200.000000	4	60	mm	200.000000	1183	1578
Frame#	Time	FHD			RBHD			C7			T10			CLAV			LSHO			LUUPA			LMUPA			LDUPA			LLEP			LMEP			LRAD			LUL			LRFIN			RSHO			RUPA1			RMUPA			RDUPA			RLEP			RMEP			RRAD			RUL			RUFIN			LASI			RASI			USACR			LSACR			RSACR			LTHI1			LTHI2			LTHI3			LTHI4			LLFC			LMFC			LTIB1			LTIB2			LTIB3			LTIB4			LLMAL			LHEE			LMT1			LMT2			LMT5			RTHI			RTHI2			RTHI3			RTHI4			RLFC			RMFC			RTIB1			RTIB2			RTIB3			RTIB4			RLMAL			RMMAL			RHEE			RMT1			RMT2			RMT5			LBHD			
		X1	Y1	Z1	X2	Y2	Z2	X3	Y3	Z3	X4	Y4	Z4	X5	Y5	Z5	X6	Y6	Z6	X7	Y7	Z7	X8	Y8	Z8	X9	Y9	Z9	X10	Y10	Z10	X11	Y11	Z11	X12	Y12	Z12	X13	Y13	Z13	X14	Y14	Z14	X15	Y15	Z15	X16	Y16	Z16	X17	Y17	Z17	X18	Y18	Z18	X19	Y19	Z19	X20	Y20	Z20	X21	Y21	Z21	X22	Y22	Z22	X23	Y23	Z23	X24	Y24	Z24	X25	Y25	Z25	X26	Y26	Z26	X27	Y27	Z27	X28	Y28	Z28	X29	Y29	Z29	X30	Y30	Z30	X31	Y31	Z31	X32	Y32	Z32	X33	Y33	Z33	X34	Y34	Z34	X35	Y35	Z35	X36	Y36	Z36	X37	Y37	Z37	X38	Y38	Z38	X39	Y39	Z39	X40	Y40	Z40	X41	Y41	Z41	X42	Y42	Z42	X43	Y43	Z43	X44	Y44	Z44	X45	Y45	Z45	X46	Y46	Z46	X47	Y47	Z47	X48	Y48	Z48	X49	Y49	Z49	X50	Y50	Z50	X51	Y51	Z51	X52	Y52	Z52	X53	Y53	Z53	X54	Y54	Z54	X55	Y55	Z55	X56	Y56	Z56	X57	Y57	Z57	X58	Y58	Z58	X59	Y59	Z59	X60	Y60	Z60	

1184	5.915	-161.5400085449219	1830.066162109375	-1108.740356445313	-313.9670715332032	1727.9794921875	-1028.573974609375	-362.1124572753907	1591.194946289063	-1107.3779296875	-426.2837829589845	1279.6396484375	-1050.862548828125	-203.1320190429688	1531.058959960938	-1098.2392578125	-233.1427612304688	1566.794677734375	-1268	-73.20095825195314	1526.8544921875	-1369.827026367188	-45.02236938476563	1557.274780273438	-1341.975952148438	-4.218704700469972	1528.544677734375	-1376.403686523438	60.48086547851564	1540.572998046875	-1370.892944335938	70.1561737060547	1469.680053710938	-1346.566162109375	349.6694641113282	1588.560302734375	-1253.338989257813	355.6080322265626	1587.96923828125	-1332.9736328125	450.1963806152345	1612.280395507813	-1264.488647460938	-229.3146362304688	1595.459228515625	-948.5683593750002	-83.32694244384767	1567.139404296875	-822.727478027344	-54.50389862060548	1590.383422851563	-855.611755371094	-13.45953464508057	1568.242553710938	-816.1546630859377	53.51608276367189	1572.329956054688	-822.061218261719	58.81260681152345	1496.504760742188	-842.2830200195315	332.7780456542969	1592.001953125	-932.9700927734377	348.1913757324219	1606.331420898438	-857.2684326171877	427.825164794922	1619.603881835938	-940.2255859375002	-298.6026611328126	1046.564819335938	-1174.736083984375	-288.0270996093751	1065.57080078125	-903.338806152344	-462.2019653320314	1188.26708984375	-1037.1884765625	-478.8446655273439	1162.838134765625	-1065.86083984375	-478.9978332519532	1159.792236328125	-1009.825927734375	-359.7988586425782	839.5161743164065	-1221.17578125	-323.2754211425782	764.2695922851564	-1213.644897460938	-274.3948059082032	771.1292724609377	-1209.943603515625	-345.1050109863282	712.4127197265626	-1190.151977539063	-300.9482116699219	571.2844238281251	-1156.550415039063	-292.9361877441407	564.7094116210939	-1024.151733398438	-269.4734802246094	354.3840332031251	-1067.703735351563	-299.9495849609376	304.5173645019532	-1135.281494140625	-268.8829956054688	304.2205810546876	-1099.316162109375	-278.8778381347657	228.3458862304688	-1061.413452148438	-341.8426208496094	107.8786392211914	-1096.533569335938	-396.9305725097657	79.41592407226564	-1042.836547851563	-187.844970703125	54.86317443847658	-1021.400451660156	-182.199203491211	58.76165771484376	-1063.833618164063	-313.6208496093751	126.4584197998047	-1012.716491699219	-307.7929992675782	764.7742309570314	-800.9773559570315	-250.9744567871094	725.6973876953126	-790.5766601562502	-219.3358612060547	734.5435180664064	-792.9141845703127	-258.1727294921876	643.0751342773439	-806.2873535156252	-263.6297607421876	606.8347778320314	-817.9014282226565	-219.2661437988282	585.9352416992189	-938.6661376953127	-358.9853515625001	540.9957275390626	-888.9482421875002	-448.3115844726564	598.4807128906251	-885.8188476562502	-441.2423095703126	556.3352661132814	-908.8618774414065	-470.9198303222657	556.6519775390626	-945.7923583984377	-646.7754516601564	615.7127685546876	-989.9292602539065	-607.5375366210939	600.0758056640626	-1069.027587890625	-626.9316406250001	692.2390136718751	-1031.176879882813	-728.1658325195314	509.4402770996095	-1114.296875	-743.8984985351564	503.091522216797	-1079.567993164063	-777.3011474609377	521.7698364257814	-1042.001098632813	-309.5578918457032	1729.514404296875	-1175.041259765625	
1185	5.92	-162.5501251220703	1830.751831054688	-1108.97607421875	-314.3528442382813	1727.687255859375	-1028.3642578125	-362.6663208007813	1591.191162109375	-1107.267333984375	-426.4136657714845	1279.455810546875	-1050.820434570313	-203.512924194336	1531.343383789063	-1098.201171875	-233.6746978759766	1566.823852539063	-1267.977416992188	-73.80374908447267	1527.030151367188	-1369.925659179688	-45.69283676147462	1557.680053710938	-1342.049072265625	-4.77457618713379	1528.84033203125	-1376.507202148438	59.61796188354494	1541.037841796875	-1370.895874023438	69.46023559570314	1470.5478515625	-1347.30126953125	348.9678649902344	1589.389038085938	-1253.515258789063	355.3318481445313	1588.651245117188	-1333.013427734375	449.3939819335939	1613.274047851563	-1264.6318359375	-229.9515991210938	1595.443359375	-948.4859008789065	-83.8641815185547	1567.144287109375	-822.7287597656252	-55.05804443359376	1590.6240234375	-855.5720825195315	-13.96929359436036	1568.328125	-816.1426391601565	52.91987991333009	1572.430419921875	-822.1690063476565	58.35111236572267	1496.66552734375	-842.486755371094	332.2811584472657	1592.49267578125	-933.5191650390627	347.7543640136719	1606.6376953125	-857.4207153320315	427.2249450683595	1620.20703125	-940.387634277344	-298.3486022949219	1046.313232421875	-1174.481079101563	-287.9171752929688	1065.488403320313	-903.282653808594	-462.3023071289064	1187.969482421875	-1037.218139648438	-478.8659667968751	1162.445556640625	-1065.906005859375	-478.9530029296876	1159.602416992188	-1009.783508300781	-359.4671325683594	839.291931152344	-1221.146606445313	-321.9009094238282	763.7530517578126	-1213.341430664063	-273.8333129882813	771.0895996093752	-1209.921142578125	-344.5982360839844	712.2696533203126	-1190.1484375	-300.1768493652344	571.3912963867189	-1156.580078125	-292.1542053222657	564.6262817382814	-1024.32666015625	-269.0782470703126	354.3794250488282	-1067.712280273438	-299.3571166992188	304.3528747558594	-1135.301025390625	-268.5690612792969	304.0647277832032	-1099.365844726563	-278.6458740234376	228.2141876220704	-1061.402587890625	-341.0581054687501	107.5859146118164	-1096.43115234375	-396.8808898925782	79.38320922851564	-1042.840087890625	-187.8304901123047	54.83227920532228	-1021.336486816406	-182.1935424804688	58.63367080688478	-1063.789184570313	-313.5881958007813	126.4545822143555	-1012.653137207031	-306.8682250976563	765.0004272460939	-800.9724731445315	-250.079086303711	725.6426391601564	-790.7792968750002	-218.2030487060547	735.0691528320314	-792.9780273437502	-256.8758850097657	643.4589233398439	-806.1862792968752	-262.4736022949219	607.1025390625001	-817.8450927734377	-217.9811248779297	586.1183471679689	-938.7606201171877	-357.7131042480469	541.2785644531251	-888.5388183593752	-447.1813049316407	598.4295043945314	-885.308288574219	-440.1607971191407	556.4354858398439	-908.3206176757815	-470.1271972656251	556.6658935546876	-944.0982055664065	-645.8002319335939	615.4463500976564	-988.9349365234377	-606.5609741210939	599.6799316406251	-1068.3505859375	-626.2662963867189	691.7280273437501	-1030.631225585938	-728.2703857421876	508.3263549804689	-1115.442016601563	-742.9392089843751	502.1313476562501	-1078.201293945313	-776.389587402344	521.1087646484376	-1040.68701171875	-310.0731201171876	1729.53857421875	-1174.927612304688	
1186	5.925	-162.9977264404297	1830.783447265625	-1108.879760742188	-314.8369445800782	1727.72705078125	-1028.313232421875	-363.1740722656251	1591.281494140625	-1107.264038085938	-426.5592346191407	1279.29931640625	-1050.833618164063	-203.9212493896485	1531.672241210938	-1098.083740234375	-233.9378967285157	1567.078002929688	-1268.007568359375	-74.47890472412111	1527.204467773438	-1370.035034179688	-46.5482521057129	1557.968017578125	-1342.123901367188	-5.026398658752442	1529.033935546875	-1376.525634765625	58.40648651123048	1541.60693359375	-1371.244262695313	68.88215637207033	1470.911743164063	-1347.593383789063	348.5335693359376	1590.491088867188	-1253.678466796875	354.6403503417969	1589.592529296875	-1333.339111328125	448.251190185547	1613.837036132813	-1264.609375	-230.5566101074219	1595.35986328125	-948.4658813476565	-84.44234466552736	1567.068603515625	-822.7297973632815	-55.72045898437501	1590.572387695313	-855.6423339843752	-14.60476398468018	1568.2177734375	-816.2041015625002	52.33122634887697	1572.423950195313	-822.4338378906252	57.87236404418947	1496.794921875	-842.7224731445315	331.7987365722657	1592.99267578125	-934.2863769531252	346.9181518554688	1606.796997070313	-857.9777832031252	426.665496826172	1620.624267578125	-940.6647949218752	-298.2202148437501	1046.099243164063	-1174.397827148438	-287.7695922851563	1065.383666992188	-903.2617797851565	-462.2998657226564	1187.853637695313	-1037.215576171875	-478.7783203125001	1162.215698242188	-1065.909912109375	-478.9308471679689	1159.394287109375	-1009.855224609375	-359.1072387695313	839.141296386719	-1221.156372070313	-321.5431823730469	763.6558837890626	-1213.39501953125	-273.4037170410157	770.9631347656252	-1209.913452148438	-344.1996459960938	712.1572875976564	-1190.191528320313	-298.9969787597657	570.9893188476564	-1156.589599609375	-291.2883300781251	564.4837646484376	-1024.479125976563	-268.6972656250001	354.2981872558594	-1067.603759765625	-298.7178649902344	304.1340026855469	-1135.377563476563	-268.1801147460938	304.0231323242188	-1099.2314453125	-278.4389648437501	228.0107421875001	-1061.26025390625	-340.8792419433594	107.6000366210938	-1096.39111328125	-396.8297729492189	79.35950469970705	-1042.841064453125	-187.787841796875	54.90119934082033	-1021.357543945313	-182.2657165527344	58.67675399780275	-1063.779907226563	-313.6029968261719	126.4821243286133	-1012.540710449219	-305.8417968750001	765.1743164062501	-801.0216064453127	-248.9408569335938	726.0217285156251	-791.0515136718752	-217.1705169677735	735.5460205078126	-793.3269042968752	-255.738754272461	643.8521728515626	-806.332214355469	-261.2413940429688	607.4271240234376	-817.8999023437502	-216.8120422363282	586.3907470703126	-938.7679443359377	-356.5989685058594	541.4104003906251	-888.2837524414065	-446.0169677734376	598.3880004882814	-884.845886230469	-439.1295471191407	556.2995605468751	-907.8120727539065	-463.6440734863282	555.5654907226564	-962.250183105469	-645.0682373046876	615.0166015625001	-988.0080566406252	-606.1329956054689	599.6748046875001	-1068.246459960938	-625.4592895507814	691.4519042968751	-1029.658813476563	-726.4497680664064	508.2760009765626	-1111.850219726563	-742.2241210937501	501.867156982422	-1076.958740234375	-775.5278930664065	520.3457031250001	-1039.301635742188	-310.4796447753907	1729.5947265625	-1174.812133789063	
1187	5.93	-163.4429473876953	1830.723876953125	-1108.796508789063	-315.2310485839844	1727.825561523438	-1028.250122070313	-363.6667480468751	1591.266479492188	-1107.234741210938	-426.6468200683595	1279.19384765625	-1050.8388671875	-204.2534942626954	1531.644897460938	-1098.06494140625	-234.6032257080079	1567.137939453125	-1267.96533203125	-74.78823089599611	1527.358764648438	-1370.023193359375	-47.33686447143555	1558.410400390625	-1342.483642578125	-5.826858997344972	1529.527465820313	-1376.759399414063	57.89544677734376	1542.050170898438	-1371.431396484375	68.2865676879883	1471.432373046875	-1347.747924804688	347.5833740234376	1590.953247070313	-1253.76220703125	353.5952758789063	1590.314697265625	-1333.415405273438	447.5670166015626	1614.77587890625	-1264.782958984375	-231.1632385253907	1595.33642578125	-948.437194824219	-84.94313049316408	1567.078002929688	-822.6036376953127	-56.29862594604494	1590.58349609375	-855.446472167969	-15.12302684783936	1568.34619140625	-816.238952636719	51.7215919494629	1572.552734375	-822.5547485351565	57.36888122558595	1497.001098632813	-842.8504638671877	331.2456665039063	1593.31396484375	-934.1685791015627	346.3866577148438	1607.161743164063	-858.2483520507815	426.3345947265626	1621.200561523438	-940.9759521484377	-297.4650878906251	1046.49072265625	-1175.474365234375	-287.6465148925782	1065.382080078125	-903.1781005859377	-462.304901123047	1187.697021484375	-1037.2919921875	-478.7541809082032	1161.9423828125	-1065.958129882813	-478.8902587890626	1159.104858398438	-1009.856994628906	-358.6460876464844	839.0382080078127	-1221.10986328125	-321.1341857910157	763.6715087890626	-1213.376953125	-272.9805603027344	770.9167480468752	-1210.009643554688	-343.6687622070313	712.0363769531251	-1190.20751953125	-298.3445129394532	571.0761718750001	-1156.671875	-289.8138732910157	564.6085815429689	-1024.521606445313	-268.3346557617188	354.0762023925782	-1067.476440429688	-298.1228027343751	304.1589965820313	-1135.306518554688	-268.0878906250001	303.6893005371094	-1099.3623046875	-278.1035766601563	227.7086791992188	-1061.047241210938	-340.7147827148438	107.5604019165039	-1096.354736328125	-396.8616027832032	79.41991424560548	-1042.873046875	-187.7765502929688	54.86589431762697	-1021.325012207031	-182.1728668212891	58.49626922607423	-1063.703247070313	-313.6245422363282	126.4722061157227	-1012.488403320313	-304.7649841308594	765.4415283203126	-801.0120239257815	-248.0530700683594	725.9971313476564	-791.2702636718752	-216.183578491211	735.7854003906251	-793.705993652344	-254.6104278564454	644.0501708984376	-806.3685302734377	-259.9064331054688	607.7037963867189	-817.847839355469	-215.6956176757813	586.6362304687501	-938.8945922851565	-355.4250793457032	541.4360961914064	-887.985290527344	-444.9820251464845	598.2825317382814	-884.432556152344	-437.9849548339845	556.3450317382814	-907.2075195312502	-462.7024536132814	555.3548583984376	-961.821472167969	-644.3291015625001	614.4930419921876	-987.0263671875002	-605.1766357421876	599.5687866210939	-1067.51025390625	-624.9364013671876	691.1254882812501	-1028.881469726563	-726.3612060546876	507.2830810546876	-1112.124145507813	-741.6142578125001	500.8275756835939	-1076.06591796875	-774.7471923828127	519.5638427734376	-1037.937133789063	-310.9006652832032	1729.652465820313	-1174.73828125	
